<?xml version="1.0" encoding="UTF-8" standalone="no"?>
  <?xml-stylesheet type="text/css" href="../index.css"?>
<svg
   xmlns:dc="http://purl.org/dc/elements/1.1/"
   xmlns:cc="http://creativecommons.org/ns#"
   xmlns:rdf="http://www.w3.org/1999/02/22-rdf-syntax-ns#"
   xmlns:svg="http://www.w3.org/2000/svg"
   xmlns="http://www.w3.org/2000/svg"
   id="svg8"
   version="1.1"
   viewBox="0 0 90.000008 90.000008"
   height="90.000008mm"
   width="90.000008mm">
  <defs
     id="defs2" />
  <metadata
     id="metadata5">
    <rdf:RDF>
      <cc:Work
         rdf:about="">
        <dc:format>image/svg+xml</dc:format>
        <dc:type
           rdf:resource="http://purl.org/dc/dcmitype/StillImage" />
        <dc:title></dc:title>
      </cc:Work>
    </rdf:RDF>
  </metadata>
  <g
     transform="translate(4.617612e-6,-206.99999)"
     id="layer1">
    <g
       style="fill-rule:nonzero"
       id="g29">
      <path  class="svg-close-icon"
         id="rect10"
         d="m -200.44331,203.25169 h 108.144413 c 3.7445,0 6.759026,3.01452 6.759026,6.75902 v 2e-5 c 0,3.7445 -3.014526,6.75902 -6.759026,6.75902 H -200.44331 c -3.7445,0 -6.75902,-3.01452 -6.75902,-6.75902 v -2e-5 c 0,-3.7445 3.01452,-6.75902 6.75902,-6.75902 z"
         style="opacity:1;fill:#000000;fill-opacity:1;fill-rule:nonzero;stroke:none;stroke-width:0.35766509;stroke-opacity:1"
         transform="rotate(-45)" />
      <path  class="svg-close-icon"
         id="rect10-0"
         d="m 155.9385,139.61208 h 108.14441 c 3.7445,0 6.75902,3.01452 6.75902,6.75901 v 2e-5 c 0,3.7445 -3.01452,6.75902 -6.75902,6.75902 H 155.9385 c -3.7445,0 -6.75903,-3.01452 -6.75903,-6.75902 v -2e-5 c 0,-3.74449 3.01453,-6.75901 6.75903,-6.75901 z"
         style="opacity:1;fill:#000000;fill-opacity:1;fill-rule:nonzero;stroke:none;stroke-width:0.35766509;stroke-opacity:1"
         transform="rotate(45)" />
    </g>
  </g>
</svg>
