<?xml version="1.0" encoding="UTF-8" standalone="no"?>
  <?xml-stylesheet type="text/css" href="../index.css"?>
<svg class="svg-home-icon"
   xmlns:dc="http://purl.org/dc/elements/1.1/"
   xmlns:cc="http://creativecommons.org/ns#"
   xmlns:rdf="http://www.w3.org/1999/02/22-rdf-syntax-ns#"
   xmlns:svg="http://www.w3.org/2000/svg"
   xmlns="http://www.w3.org/2000/svg"
   id="svg8"
   version="1.1"
   viewBox="0 0 131.99167 151.48886"
   height="151.48886mm"
   width="131.99167mm">
  <defs
     id="defs2" />
  <metadata
     id="metadata5">
    <rdf:RDF>
      <cc:Work
         rdf:about="">
        <dc:format>image/svg+xml</dc:format>
        <dc:type
           rdf:resource="http://purl.org/dc/dcmitype/StillImage" />
        <dc:title></dc:title>
      </cc:Work>
    </rdf:RDF>
  </metadata>
  <g
     transform="translate(-21.307913,-93.236733)"
     id="layer2">
    <g
       style="fill-rule:nonzero;"
       id="g1290">
      <path
         style="opacity:1;fill-opacity:1;stroke:none;stroke-width:2.3730576;stroke-opacity:1;fill-rule:nonzero"
         d="M 61.365234,240.12305 V 572.55664 H 186.36523 v -200 h 125 v 200 h 125 V 240.12305 Z m 32.015625,32.5957 h 64.615231 v 64.61523 H 93.380859 Z"
         id="rect835"
         transform="matrix(0.26458333,0,0,0.26458333,21.307913,93.236733)" />
      <circle
         style="opacity:1;fill-opacity:1;stroke:none;stroke-width:1.04585755;stroke-opacity:1;fill-rule:nonzero"
         id="path4701"
         cx="76.908051"
         cy="219.91672"
         r="3.3072915" />
    </g>
  </g>
  <g
     transform="translate(-21.307913,-93.236733)"
     id="layer3">
    <g
       style="fill-rule:nonzero"
       transform="matrix(2.1989056,0,0,2.1989056,-22.970189,-388.69697)"
       id="g940">
      <g
         style="fill-rule:nonzero"
         id="g893"
         transform="matrix(1,0,0,0.85659995,0,26.434811)">
        <path
           transform="matrix(1.2954301,0,0,0.7081082,117.86434,159.91435)"
           d="m -52.3875,134.28125 c -27.954579,0 -27.954579,0 -13.97729,-24.20938 13.977288,-24.209375 13.977288,-24.209375 27.954578,0 13.97729,24.20938 13.97729,24.20938 -13.977288,24.20938 z"
           id="path846"
           style="opacity:1;fill-opacity:1;stroke:none;stroke-width:0.26458332;stroke-opacity:1;fill-rule:nonzero" />
      </g>
      <path
         style="opacity:1;fill-opacity:1;stroke:none;stroke-width:0.18471956;stroke-opacity:1;fill-rule:nonzero"
         id="path852"
         d="m 39.916939,242.12784 a 9.8772202,4.934761 0 0 1 -4.93861,4.27363 9.8772202,4.934761 0 0 1 -9.877221,0 9.8772202,4.934761 0 0 1 -4.93861,-4.27363 l 9.877221,0 z" />
      <path
         style="opacity:1;fill-opacity:1;stroke:none;stroke-width:0.18471956;stroke-opacity:1;fill-rule:nonzero"
         id="path852-9"
         d="m 60.039722,242.06261 a 9.8772202,4.934761 0 0 1 -4.93861,4.27363 9.8772202,4.934761 0 0 1 -9.87722,0 9.8772202,4.934761 0 0 1 -4.93861,-4.27363 l 9.87722,0 z" />
      <path
         style="opacity:1;fill-opacity:1;stroke:none;stroke-width:0.18471956;stroke-opacity:1;fill-rule:nonzero"
         id="path852-9-8"
         d="m 80.162498,242.06261 a 9.8772202,4.934761 0 0 1 -4.93861,4.27363 9.8772202,4.934761 0 0 1 -9.87722,0 9.8772202,4.934761 0 0 1 -4.93861,-4.27363 l 9.87722,0 z" />
    </g>
  </g>
</svg>
