<?xml version="1.0" encoding="UTF-8" standalone="no"?>
  <?xml-stylesheet type="text/css" href="../index.css"?>
<svg class="svg-menu-icon"
   xmlns:dc="http://purl.org/dc/elements/1.1/"
   xmlns:cc="http://creativecommons.org/ns#"
   xmlns:rdf="http://www.w3.org/1999/02/22-rdf-syntax-ns#"
   xmlns:svg="http://www.w3.org/2000/svg"
   xmlns="http://www.w3.org/2000/svg"
   width="38.495956mm"
   height="26.458336mm"
   viewBox="0 0 38.495956 26.458336"
   version="1.1"
   id="svg8">
  <defs
     id="defs2" />
  <metadata
     id="metadata5">
    <rdf:RDF>
      <cc:Work
         rdf:about="">
        <dc:format>image/svg+xml</dc:format>
        <dc:type
           rdf:resource="http://purl.org/dc/dcmitype/StillImage" />
        <dc:title></dc:title>
      </cc:Work>
    </rdf:RDF>
  </metadata>
  <g
     transform="translate(-31.192413,-72.478828)"
     id="layer1">
    <g
       id="g23">
      <path
         id="rect3763"
         d="m 33.331078,79.872498 h 34.218628 c 1.184819,0 2.138664,0.953844 2.138664,2.138664 0,1.18482 -0.953845,2.138664 -2.138664,2.138664 H 33.331078 c -1.18482,0 -2.138665,-0.953844 -2.138665,-2.138664 0,-1.18482 0.953845,-2.138664 2.138665,-2.138664 z"
         style="opacity:1;fill:#000000;fill-opacity:1;fill-rule:nonzero;stroke:none;stroke-width:0.11317097;stroke-opacity:1" />
      <path
         id="rect3763-8"
         d="m 33.331078,94.659836 h 34.218628 c 1.184819,0 2.138664,0.953844 2.138664,2.138664 0,1.18482 -0.953845,2.138664 -2.138664,2.138664 H 33.331078 c -1.18482,0 -2.138665,-0.953844 -2.138665,-2.138664 0,-1.18482 0.953845,-2.138664 2.138665,-2.138664 z"
         style="opacity:1;fill:#000000;fill-opacity:1;fill-rule:nonzero;stroke:none;stroke-width:0.11317097;stroke-opacity:1" />
      <path
         id="rect3763-0"
         d="m 33.331078,72.478828 h 34.218628 c 1.184819,0 2.138664,0.953845 2.138664,2.138665 0,1.18482 -0.953845,2.138664 -2.138664,2.138664 H 33.331078 c -1.18482,0 -2.138665,-0.953844 -2.138665,-2.138664 0,-1.18482 0.953845,-2.138665 2.138665,-2.138665 z"
         style="opacity:1;fill:#000000;fill-opacity:1;fill-rule:nonzero;stroke:none;stroke-width:0.11317097;stroke-opacity:1" />
      <path
         id="rect3763-1"
         d="m 33.331078,87.266159 h 34.218628 c 1.184819,0 2.138664,0.953844 2.138664,2.138664 0,1.18482 -0.953845,2.138665 -2.138664,2.138665 H 33.331078 c -1.18482,0 -2.138665,-0.953845 -2.138665,-2.138665 0,-1.18482 0.953845,-2.138664 2.138665,-2.138664 z"
         style="opacity:1;fill:#000000;fill-opacity:1;fill-rule:nonzero;stroke:none;stroke-width:0.11317097;stroke-opacity:1" />
    </g>
  </g>
</svg>
